<svg id="Layer_1" data-name="Layer 1" xmlns="http://www.w3.org/2000/svg" viewBox="0 0 909.17 316.83"><defs><style>.cls-1{fill:#f8a91b;}</style></defs><path class="cls-1" d="M434.05,70.82H388.23a7.13,7.13,0,0,0-7.13,7.31c.51,20.12,2,78,3.4,99.37,1,15.06-7.08,22.4-28.42,22.4s-29.34-7.11-28.31-22.4c1.42-21.2,2.84-79.25,3.32-99.38a7.12,7.12,0,0,0-7.12-7.3l-45.75,0A7.2,7.2,0,0,0,271,78v114.3c0,16.11,6.08,31.85,19.47,42.41s34.14,17.09,63.45,17.09h4.32c29.31,0,50-6.53,63.45-17.09s19.48-26.3,19.48-42.41V78A7.14,7.14,0,0,0,434.05,70.82Z"/><path class="cls-1" d="M238.09,195.58l-86.62-33.39s.07-1.16.07-1.77-.07-1.78-.07-1.78l86.6-33.31a7.13,7.13,0,0,0,4.56-6.64l0-40.74a7.12,7.12,0,0,0-7.12-7.11H179.38a7.1,7.1,0,0,0-6.25,3.71l-35.4,65.17s-1-.4-1.66-.62c-.49-.16-1.73-.48-1.73-.48l7.87-59.76a7.11,7.11,0,0,0-7.05-8H79.52a7.11,7.11,0,0,0-7.12,7.11v165A7.11,7.11,0,0,0,79.51,250h55.65a7.11,7.11,0,0,0,7.05-8l-7.87-59.75s1.12-.28,1.79-.51,1.6-.59,1.6-.59l35.39,65.17a7.11,7.11,0,0,0,6.25,3.72h56.14a7.13,7.13,0,0,0,7.12-7.12V202.22A7.12,7.12,0,0,0,238.09,195.58Z"/><path class="cls-1" d="M632.66,70.82h-49a7.12,7.12,0,0,0-7.09,7.67l6.5,81.91s-1.06,0-1.62.06-1.66.18-1.66.18L528.37,74.3a7.13,7.13,0,0,0-6.11-3.47h-45.6a7.12,7.12,0,0,0-7.11,7.12v165a7.11,7.11,0,0,0,7.11,7.12h49a7.11,7.11,0,0,0,7.09-7.68l-6.47-81.91s1.08,0,1.64,0,1.82-.21,1.82-.21L581,246.52a7.11,7.11,0,0,0,6.12,3.48h45.57a7.12,7.12,0,0,0,7.12-7.12V77.94A7.12,7.12,0,0,0,632.66,70.82Z"/><path class="cls-1" d="M831.25,205.21H739.07a7.1,7.1,0,0,1-7.11-7.1c0-3.55,0-7.83,0-11.41a7.1,7.1,0,0,1,7.43-7.1l63.16,2.87a7.12,7.12,0,0,0,7.44-7.11v-29.9a7.11,7.11,0,0,0-7.44-7.1l-63.15,2.9a7.11,7.11,0,0,1-7.44-7.1V122.73a7.1,7.1,0,0,1,7.1-7.11h88.67a7.11,7.11,0,0,0,7.1-7.12V77.94a7.11,7.11,0,0,0-7.11-7.11l-152.47,0A7.11,7.11,0,0,0,668.15,78V242.89a7.11,7.11,0,0,0,7.11,7.11h156a7.11,7.11,0,0,0,7.12-7.11V212.32A7.11,7.11,0,0,0,831.25,205.21Z"/></svg>